<svg xmlns="http://www.w3.org/2000/svg" xml:space="preserve" overflow="visible" viewBox="0 0 165.91 175.75"><path fill="#B2B2B2" d="M82.688 0 0 29.1l13.066 108.335 69.71 38.314 70.069-38.834 13.062-108.331zm0 0"/><path fill="#B52E31" d="M157.66 34.846 82.496 9.214v157.381l62.991-34.861zm0 0"/><path fill="#E23237" d="m9.279 35.308 11.196 96.889 62.019 34.398V9.211zm0 0"/><path fill="#F2F2F2" d="M99.918 87.493 82.632 51.396 67.415 87.493zm6.59 15.179h-45.82l-10.251 25.64-19.067.352L82.496 14.929l52.908 113.734h-17.673zm0 0"/><path fill="#B2B2B2" d="m82.496 14.929.136 36.467L99.9 87.521H82.534l-.039 15.127 24.012.023 11.223 25.996 18.245.339zm0 0"/></svg>
