<svg xmlns="http://www.w3.org/2000/svg" width="1000" height="666.667"><defs><clipPath id="a" clipPathUnits="userSpaceOnUse"><path d="M0 0h750v500H0Z"/></clipPath><clipPath id="b" clipPathUnits="userSpaceOnUse"><path d="M-32.37 407.044h824.728V248.028H-32.371Z"/></clipPath><clipPath id="c" clipPathUnits="userSpaceOnUse"><path d="M320.41 392.733h479.93V278.555H320.41Z"/></clipPath><clipPath id="d" clipPathUnits="userSpaceOnUse"><path d="M-83.247 378.905h386.544V272.448H-83.247Z"/></clipPath></defs><path d="M0 0h750v500H0Z" style="fill:#eec5b9;fill-opacity:1;fill-rule:nonzero;stroke:none" transform="matrix(1.33333 0 0 -1.33333 0 666.667)"/><g clip-path="url(#a)" transform="matrix(1.33333 0 0 -1.33333 0 666.667)"><g clip-path="url(#b)" opacity=".1"><path d="M0 0c-68.698 16.432-138.525-16.792-201.086-49.588-62.56-32.796-131.385-67.195-200.61-53.153-37.697 7.646-70.991 29.061-107.034 42.492-49.817 18.564-104.358 21.565-157.258 16.286S-770.62-62.518-822.109-75.749c-.386-.77-2.235-3.037-2.62-3.807v-59.027c271.937 0 544.935-11.14 816.827-16.094z" style="fill:#f9f9f9;fill-opacity:1;fill-rule:nonzero;stroke:none" transform="translate(792.358 402.705)"/></g><g clip-path="url(#c)" opacity=".1"><path d="m0 0-44.1 13.75c-25.83 8.052-51.739 16.125-78.365 20.932-70.418 12.713-144.851 1.606-208.699-30.703-49.723-25.161-94.245-63.113-148.766-74.646 1.764 0-.83-3.689.934-3.689h460.331z" style="fill:#f9f9f9;fill-opacity:1;fill-rule:nonzero;stroke:none" transform="translate(800.34 352.912)"/></g><g clip-path="url(#d)" opacity=".1"><path d="M0 0c-49.804 12.326-93.691 41.108-140.673 61.727-76.702 33.66-162.893 45.366-245.795 33.38-.274-1.681.307-3.657.032-5.338V-6.774Z" style="fill:#f9f9f9;fill-opacity:1;fill-rule:nonzero;stroke:none" transform="translate(303.296 279.222)"/></g><path d="m0 0 103.229 44.331c4.865 2.089 11.563 2.16 16.563.175L221.957 3.952c5.154-2.047 12.09-1.902 16.963.353l11.357 5.256c4.977 2.303 12.087 2.4 17.254.235l50.937-21.338c4.84-2.028 11.43-2.084 16.376-.14l10.423 4.097c4.907 1.929 11.438 1.89 16.272-.097l9.316-3.828c4.96-2.038 11.688-2.021 16.616.042l82.576 34.584c5.052 2.116 11.978 2.075 16.951-.1l18.066-7.904c5.589-2.445 13.523-2.16 18.52.663 5.021 2.837 13.002 3.109 18.589.633l41.001-18.171c5.171-2.292 12.465-2.249 17.552.102l21.778 10.069c4.809 2.224 11.635 2.396 16.775.423l13.636-5.232c4.867-1.868 11.279-1.822 16.063.114l102.788 41.619c3.862 1.564 8.861 1.918 13.286.94l87.364-19.292c4.525-1 9.645-.605 13.532 1.042l46.041 19.512c5.035 2.134 11.968 2.113 16.963-.051l33.344-14.443c3.465-1.501 5.497-3.828 5.497-6.295V-148.41c0-4.381-6.285-7.933-14.038-7.933H8.494c-7.753 0-14.037 3.552-14.037 7.933V-6.315C-5.543-3.836-3.492-1.5 0 0" style="fill:#edae9b;fill-opacity:1;fill-rule:nonzero;stroke:none" transform="translate(-118.529 310.582)"/><path d="m0 0 63.201 28.01a53.7 53.7 0 0 0 35.813 2.733l77.367-20.981a53.7 53.7 0 0 1 24.884-.768l6.334 1.304a53.7 53.7 0 0 0 24.413-.644l88.595-23.165a53.7 53.7 0 0 1 29.604.698l54.981 17.184a53.7 53.7 0 0 0 30.772.379 53.7 53.7 0 0 1 32.896 1.091l7.296 2.619a53.7 53.7 0 0 0 24.98 2.721L648.722-7.76a53.7 53.7 0 0 1 21.511 1.607l113.341 32.201v-192.229c0-29.657-24.042-53.7-53.699-53.7H53.699C24.042-219.881 0-195.838 0-166.181z" style="fill:#e89aa3;fill-opacity:1;fill-rule:nonzero;stroke:none" transform="translate(-26.17 279.537)"/><path d="M0 0c0 19.17 14.09 35.426 33.065 38.148l140.06 50.881a36.83 36.83 0 0 0 22.488.853l90.315-25.253c.693.131 61.309 16.748 62.009 16.841l65.973 16.662c1.672.22 3.356.331 5.041.331h17.135c3.656 0 7.295-.521 10.805-1.546l95.568-27.914a38.53 38.53 0 0 1 21.062-.156l63.653 17.573a38.6 38.6 0 0 1 8.099 3.263l57.274 31.023a38.54 38.54 0 0 0 18.355 4.652h4.749c4.492 0 8.95.786 13.17 2.32l8.909 3.24a38.54 38.54 0 0 0 32.114-2.656l20.587-11.62V0c0-21.284-17.254-38.539-38.539-38.539H38.539C17.254-38.539 0-21.284 0 0" style="fill:#af8cad;fill-opacity:1;fill-rule:nonzero;stroke:none" transform="translate(-26.17 151.993)"/><path d="m0 0 60.357 20.337a38 38 0 0 1 4.609 1.9l17.755 8.733a37.74 37.74 0 0 0 16.664 3.877H109a37.76 37.76 0 0 0 23.887-8.516l60.263-49.23 85.027-63.998a37.74 37.74 0 0 1 16.925-7.145l58.457-9.057a38 38 0 0 1 5.781-.445h61.341c6.19 0 12.285 1.522 17.748 4.431l98.654 52.539a38 38 0 0 0 3.164 1.501l28.359 11.875a37.76 37.76 0 0 0 18.403 2.736l31.47-3.198a37.8 37.8 0 0 0 12.874-3.696l50.47-24.875a37.75 37.75 0 0 1 27.171-2.407l18.518 5.349a37.75 37.75 0 0 0 24.109-1.063l8.801-3.406a37.75 37.75 0 0 1 20.907-1.838l45.035 8.846v-84.628H37.758C16.905-141.378 0-124.473 0-103.62Z" style="fill:#9e81a8;fill-opacity:1;fill-rule:nonzero;stroke:none" transform="translate(-36.423 241.169)"/><path d="m0 0 115.55 36.231c1.246.391 2.447.915 3.582 1.56l41.077 23.357a18.36 18.36 0 0 0 16.376.886l49.47-21.437a18.4 18.4 0 0 1 3.784-1.174L429.563.449c1.531-.298 3.092-.4 4.648-.304l76.593 4.727c1.121.068 2.233.24 3.322.513l109.13 27.282q.687.173 1.385.29l52.782 8.946a18.36 18.36 0 0 1 9.184 4.429l69.055 61.88a18.34 18.34 0 0 0 8.364 4.27l54.96 11.909V-66.422H0Z" style="fill:#84617e;fill-opacity:1;fill-rule:nonzero;stroke:none" transform="translate(-59.242 110.111)"/><path d="m0 0-10.532-3.159a38.52 38.52 0 0 0-27.555 2.083L-52.878 5.93a38.51 38.51 0 0 1-29.621 1.399l-55.387-20.092a38.5 38.5 0 0 0-12.171-2.296l-78.974-1.974a38.4 38.4 0 0 1-9.081-1.321l-120.913-32.66a38.6 38.6 0 0 0-10.044-1.333h-59.953a38.5 38.5 0 0 0-15.914 3.442l-69.532 31.547a38.6 38.6 0 0 1-7.803 2.578l-84.248 18.145a38.5 38.5 0 0 1-18.033-.437l-69.67-18.578v-104.277H95.862v91.183L25.115-1.029A38.5 38.5 0 0 1 0 0" style="fill:#281f32;fill-opacity:1;fill-rule:nonzero;stroke:none" transform="translate(680.525 117.927)"/><path d="M0 0c0-14.479-11.737-26.217-26.217-26.217S-52.435-14.479-52.435 0s11.739 26.217 26.218 26.217C-11.737 26.217 0 14.479 0 0" style="fill:#f9f9f9;fill-opacity:1;fill-rule:nonzero;stroke:none" transform="translate(596.998 409.955)"/><path d="M0 0s1.658-4.544 10.691-6.57l5.096-2.85 3.18.414-2.525 2.431s5.471 2.627 8.376 5.711l5.27 1.885S21.32-.267 16.874-3.904l-3.125-1.605-8.422 2.074S1.53-1.501 0 0" style="fill:#281f32;fill-opacity:1;fill-rule:nonzero;stroke:none" transform="translate(281.064 308.356)"/><path d="M0 0s1.379-3.78 8.892-5.464l4.239-2.371 2.644.344-2.099 2.022s4.55 2.185 6.966 4.751L25.024.849s-7.292-1.071-10.99-4.096l-2.599-1.336-7.004 1.726S1.272-1.249 0 0" style="fill:#281f32;fill-opacity:1;fill-rule:nonzero;stroke:none" transform="translate(14.953 419.15)"/><path d="M0 0s2.11-7.093 15.716-11.023l7.518-4.825 4.893.337-3.629 3.947s8.598 3.504 13.318 7.945l8.222 2.389S32.531-2.384 25.404-7.525l-4.921-2.162L7.815-5.738S2.196-2.434 0 0" style="fill:#281f32;fill-opacity:1;fill-rule:nonzero;stroke:none" transform="translate(191.715 324.663)"/><path d="M0 0s1.302-4.345 9.647-6.739l4.614-2.949 3 .212L15.03-7.06s5.267 2.158 8.156 4.886l5.037 1.473s-8.279-.722-12.641-3.882l-3.015-1.332-7.769 2.407S1.35-1.49 0 0" style="fill:#281f32;fill-opacity:1;fill-rule:nonzero;stroke:none" transform="translate(228.309 357.258)"/><path d="M0 0s.732-2.446 5.43-3.793l2.597-1.66 1.689.12L8.46-3.974s2.965 1.215 4.591 2.75l2.835.83S11.227-.801 8.771-2.58l-1.697-.749L2.7-1.975S.76-.838 0 0" style="fill:#281f32;fill-opacity:1;fill-rule:nonzero;stroke:none" transform="translate(142.857 309.609)"/><path d="M0 0s.732-2.446 5.43-3.793l2.597-1.66 1.688.12L8.46-3.974s2.965 1.215 4.591 2.75l2.835.83s-4.66-.407-7.115-2.186l-1.698-.749L2.7-1.975S.76-.838 0 0" style="fill:#281f32;fill-opacity:1;fill-rule:nonzero;stroke:none" transform="translate(343.917 327.39)"/><path d="m0 0-3.138-.522-10.111-.756 4.184-1.139-3.022-1.138-6.392 1.695-7.206.582-5.346-.582 5.109 1.038 7.003-.22 2.069.748 6.958-.228z" style="fill:#281f32;fill-opacity:1;fill-rule:nonzero;stroke:none" transform="translate(196.914 346.712)"/><path d="m0 0-4.017-.668-12.942-.968 5.355-1.457-3.868-1.457-8.182 2.17-9.224.744-6.843-.744 6.54 1.328 8.963-.282 2.65.958 8.907-.292z" style="fill:#281f32;fill-opacity:1;fill-rule:nonzero;stroke:none" transform="translate(385.478 263.226)"/><path d="m0 0-2.358-.393-7.599-.568 3.145-.855-2.272-.855-4.804 1.274-5.415.436-4.017-.436 3.84.779 5.261-.166 1.556.563 5.229-.172z" style="fill:#281f32;fill-opacity:1;fill-rule:nonzero;stroke:none" transform="translate(311.152 379.915)"/><path d="m0 0-1.67-.278-5.381-.402 2.227-.606-1.608-.606-3.401.902-3.835.31-2.845-.31 2.719.553 3.727-.118 1.1.399 3.703-.122z" style="fill:#281f32;fill-opacity:1;fill-rule:nonzero;stroke:none" transform="translate(222.99 385.347)"/><path d="m0 0-4.017-.668-12.942-.968 5.355-1.457-3.868-1.457-8.181 2.17-9.224.744-6.844-.744 6.54 1.328 8.963-.282 2.65.958 8.907-.292z" style="fill:#281f32;fill-opacity:1;fill-rule:nonzero;stroke:none" transform="translate(307.142 332.832)"/><path d="m0 0-4.017-.668-12.943-.968 5.356-1.457-3.868-1.457-8.182 2.17-9.224.744-6.844-.744 6.54 1.328 8.964-.282 2.65.958 8.906-.292z" style="fill:#281f32;fill-opacity:1;fill-rule:nonzero;stroke:none" transform="translate(102.349 395.83)"/><path d="m0 0 10.842-2.239L21.87-7.315l1.711-2.022 2.387.269.332 2.352 7.367 6.427 9.832 1.431-10.706-.133-7.788-4.421-3.858-.281-9.428 2.676z" style="fill:#281f32;fill-opacity:1;fill-rule:nonzero;stroke:none" transform="translate(110.025 363.8)"/></g></svg>