<svg xmlns="http://www.w3.org/2000/svg" viewBox="17.11 31.1 111.49 126.73"><path d="M439.03 51.2c9.97-.42 19.96.12 29.94-.05 11.01-.35 22.01-.06 33.03-.02 8.74.02 17.48-.04 26.22.03-2.75 30.33-5.52 60.66-8.07 91.01-11.71 3.33-23.43 6.61-35.14 9.92-1.5.62-3.04.04-4.48-.35-11.13-3.2-22.26-6.37-33.41-9.45-2.9-30.34-5.63-60.71-8.09-91.09m44.78 7.91c-.41 14.96-.06 29.92-.18 44.88.11 13.68-.2 27.37.16 41.05 9.84-2.32 19.55-5.17 29.26-7.98 2.44-25.97 4.82-51.94 6.86-77.94-12.03-.12-24.07.02-36.1-.01m-12.52 58.42c-5.78-1.58-11.49-3.4-17.35-4.65-.17 3.48-.11 6.96.29 10.42 8.58 2.09 16.98 4.84 25.57 6.89.06-19.81-.03-39.63.04-59.44-2.8-.07-5.6-.11-8.4-.17-.32 15.64-.02 31.3-.15 46.95" style="fill:#d6ba32" transform="translate(-531.675 -32.625)scale(1.25)"/><path d="M483.81 59.11c12.03.03 24.07-.11 36.1.01-2.04 26-4.42 51.97-6.86 77.94-9.71 2.81-19.42 5.66-29.26 7.98-.36-13.68-.05-27.37-.16-41.05.12-14.96-.23-29.92.18-44.88m3.37 11.63c.04 12.88.05 25.77 0 38.65 5.88-.95 11.74-2.04 17.6-3.11-.09 3-.21 6-.34 9-5.71 1.52-11.41 3.09-17.15 4.5-.09 3.46-.1 6.92-.07 10.39 7.23-1.62 14.35-3.66 21.53-5.47.9-.42 2.63-.37 2.55-1.78.87-9.26 1.41-18.56 2.25-27.84-5.95.49-11.84 1.49-17.79 1.9-.05-5.26-.06-10.52.02-15.78 6.26 0 12.51 0 18.77.01.4-3.51.75-7.03 1.02-10.55-9.46.04-18.93-.09-28.39.08" style="fill:#ffda3e" transform="translate(-531.675 -32.625)scale(1.25)"/><path d="M586.606 321.085c.162-19.563-.213-39.138.187-58.688 3.5.075 7 .125 10.5.213-.087 24.762.025 49.537-.05 74.3-10.737-2.563-21.237-6-31.962-8.613-.5-4.325-.575-8.675-.363-13.025 7.325 1.563 14.463 3.838 21.688 5.813" style="fill:#ebebeb" transform="translate(-529.168 -206.797)"/></svg>