<svg xmlns="http://www.w3.org/2000/svg" viewBox="0 0 371.14 94.33"><path d="M1072.12 77.637c-.21-6.117-.63-12.426-1.43-19.125l24.9 45.136-2.74 14.723 25 3.82 9.09-62.53 11.5 39.202c.91 3.828 1.38 6.688 1.49 9.559.09 2.871-.18 5.93-1.18 10.137l26.18 4.972c.95-5.351 1.56-9.945 1.4-14.722-.23-6.313-1.81-13.192-6.19-23.52l-21.08-56.605h-31.17l-6.56 42.257-24.41-42.257h-30.22c1.19 39.394-.24 64.062-2.97 89.875l25.95 4.015c1.98-14.34 3.01-28.683 2.44-44.937M1234.43 99.242c-12.08-6.496-16.56-8.988-27.5-15.676l-11.67-54.882h-26.95l19.03 90.832 23.85 4.015-1.02-12.617c9.18 5.352 16.58 9.18 24.73 12.617zM1259.14 160.824l27.86 3.821-6.17-28.684-27.67-3.828zm-8.71-41.117 27.87 3.824-20.14-94.847h-26.95zM1327.94 100.199l-9.84-46.465c-.22-.957-.45-1.914-.47-2.488-.04-1.34.7-1.914 2.62-1.914 4.59 0 9.8 1.914 14.66 3.828l4.69-18.742c-7.79-4.203-19-7.648-29.9-7.648-13.57 0-20.61 6.503-20.22 17.59.04 1.343.29 2.68.52 4.019l10.99 51.82h-13.76l4.57 21.61h13.77l4.6 22.375 27.85 3.824-5.5-26.199h22.18l-6.11-21.61zM1409.11 97.523c.11 3.254-2.68 5.36-7.65 5.36-9.76 0-12.82-5.547-14.42-13.2l-1.37-6.503c4.63 1.152 6.74 1.53 12.34 3.257 7.35 2.102 10.9 5.54 11.1 11.086m-49.07-8.984c4.56 21.418 14.61 35.184 44.06 35.184 17.58 0 30.7-7.649 30.15-23.332-.63-18.168-10.29-26.582-33.47-33.461-11.41-3.442-11.6-3.442-19.7-5.547l-1.38-6.5c-.69-3.446-.42-6.504 4.55-6.504 9.76 0 24.08 4.781 36.89 10.324l4.49-19.117c-11.53-7.074-29.51-12.817-45.95-12.817-19.31 0-27.24 8.41-26.69 24.286.12 3.441.65 7.265 1.55 11.285zM1503.81 159.867l27.86 3.821-28.42-135.004h-26.96zM1584.22 97.523c.12 3.254-2.67 5.36-7.64 5.36-9.76 0-12.83-5.547-14.43-13.2l-1.36-6.503c4.63 1.152 6.73 1.53 12.34 3.257 7.34 2.102 10.9 5.54 11.09 11.086m-49.06-8.984c4.56 21.418 14.61 35.184 44.05 35.184 17.59 0 30.71-7.649 30.16-23.332-.63-18.168-10.29-26.582-33.48-33.461-11.4-3.442-11.59-3.442-19.69-5.547l-1.38-6.5c-.69-3.446-.42-6.504 4.55-6.504 9.76 0 24.07 4.781 36.88 10.324l4.5-19.117c-11.54-7.074-29.51-12.817-45.95-12.817-19.32 0-27.25 8.41-26.69 24.286.12 3.441.64 7.265 1.54 11.285zM1611.6 32.89l5.86 19.887c6.98-2.488 14.93-4.78 25.06-4.78 8.99 0 9.65 2.679 10.57 7.077.91 4.203-1.69 6.5-12.01 12.047-19.13 10.324-19.66 17.211-16.68 31.164 4.33 20.086 10.45 25.438 36.26 25.438 8.79 0 20-1.914 27.57-4.395l-5.12-20.273c-6.82 1.914-16.88 3.441-23.39 3.441-8.03 0-9.22-.957-10.35-5.922-.91-4.406.01-5.363 8.83-10.137 21.01-11.48 24.13-15.496 20.94-30.214-4.56-21.043-10.97-29.454-38.89-29.454-8.6 0-20.56 2.489-28.65 6.122M1688.84 32.89l5.86 19.887c6.98-2.488 14.93-4.78 25.07-4.78 8.98 0 9.65 2.679 10.57 7.077.91 4.203-1.69 6.5-12.01 12.047-19.14 10.324-19.66 17.211-16.68 31.164 4.32 20.086 10.44 25.438 36.26 25.438 8.78 0 20-1.914 27.56-4.395l-5.11-20.273c-6.82 1.914-16.89 3.441-23.39 3.441-8.03 0-9.22-.957-10.35-5.922-.91-4.406.01-5.363 8.82-10.137 21.02-11.48 24.14-15.496 20.94-30.214-4.56-21.043-10.96-29.454-38.88-29.454-8.61 0-20.56 2.489-28.66 6.122M1762.71 7.844l15.46 20.84h-10.14l6.65 31.742h26.96l-7.3-34.04L1772.18 0zM1885.44 56.602c-1.13-4.977.13-7.27 4.91-7.27 9.56 0 16.61 4.977 21.93 9.566l8.71 41.493c-3.04.578-6.66.765-10.48.765-13.96 0-17.09-7.453-19.12-16.445zm24.64-27.918-.49 8.03c-6.88-5.546-16.59-9.945-29.98-9.945-20.26 0-24.8 12.239-20.44 33.087l5.27 25.046c4.6 22.184 10.92 38.821 50.11 38.821 2.87 0 8.78-.383 11.25-.957l7.79 37.101 27.66 3.821-28.41-135.004zM2021.21 90.64c.24 6.883-3.83 10.516-12.63 10.516-10.14 0-16.25-5.16-18.09-14.34l-4.82-23.14c-.25-1.336-.48-2.676-.52-3.82-.23-6.696 3.84-10.524 12.64-10.524 10.32 0 16.23 5.164 18.08 14.344l4.83 23.14c.23 1.34.47 2.676.51 3.825m-63.29-32.699c.08 2.102.36 4.399.82 6.504l4.58 21.606c5.02 23.906 17.18 37.672 49.68 37.672 25.05 0 35.82-14.344 35.25-30.977a43 43 0 0 0-.81-6.695l-4.57-21.606c-4.81-22.379-16.05-37.675-49.89-37.675-23.71 0-35.64 14.152-35.06 31.171M2212.83 91.977c.23 1.148.46 2.105.48 2.87.06 1.915-.86 2.676-3.54 2.676-4.97 0-16.81-4.968-24.59-8.984l-12.61-59.855h-26.76l13.3 63.293c.22 1.148.46 2.105.47 2.87.07 1.915-.85 2.676-3.53 2.676-4.97 0-17-4.968-24.4-8.792l-12.61-60.047h-26.96l19.05 90.832 23.84 4.015-.55-10.324c14.77 6.887 26.37 10.516 37.08 10.516 9.17 0 13.81-4.016 15.67-10.899 14.44 8.227 27.35 10.899 38.05 10.899 12.43 0 16.77-7.078 16.36-18.926-.12-3.258-.44-6.89-1.33-10.715l-13.76-65.398h-26.96zM2313.9 90.64c.25 6.883-3.83 10.516-12.63 10.516-10.13 0-16.25-5.16-18.08-14.34l-4.83-23.14c-.24-1.336-.47-2.676-.51-3.82-.24-6.696 3.83-10.524 12.63-10.524 10.33 0 16.23 5.164 18.09 14.344l4.82 23.14c.24 1.34.47 2.676.51 3.825m-63.28-32.699c.08 2.102.35 4.399.81 6.504l4.58 21.606c5.03 23.906 17.19 37.672 49.69 37.672 25.05 0 35.82-14.344 35.24-30.977a43 43 0 0 0-.81-6.695l-4.57-21.606c-4.8-22.379-16.04-37.675-49.88-37.675-23.71 0-35.65 14.152-35.06 31.171M2412.48 99.242c-12.08-6.496-16.57-8.988-27.5-15.676l-11.67-54.882h-26.96l19.05 90.832 23.83 4.015-1.01-12.617c9.18 5.352 16.58 9.18 24.72 12.617zM2467.67 97.523c.12 3.254-2.67 5.36-7.65 5.36-9.75 0-12.82-5.547-14.42-13.2l-1.37-6.503c4.63 1.152 6.74 1.53 12.35 3.257 7.34 2.102 10.9 5.54 11.09 11.086m-49.06-8.984c4.56 21.418 14.61 35.184 44.05 35.184 17.59 0 30.7-7.649 30.16-23.332-.64-18.168-10.3-26.582-33.49-33.461-11.4-3.442-11.58-3.442-19.69-5.547l-1.37-6.5c-.7-3.446-.42-6.504 4.55-6.504 9.75 0 24.07 4.781 36.88 10.324l4.49-19.117c-11.53-7.074-29.51-12.817-45.94-12.817-19.32 0-27.25 8.41-26.69 24.286.11 3.441.64 7.265 1.54 11.285zM2503.84 60.426h26.96l-6.65-31.742h-26.96zM32.7 573.051c-45.571-65.469-39.938-150.645-5.071-220.215.777-1.699 1.676-3.305 2.531-4.945a40 40 0 0 1 1.645-3.172c.261-.578.672-1.211 1.008-1.774.562-1.136 1.156-2.183 1.753-3.265 1.122-1.887 2.239-3.805 3.36-5.676.633-1.043 1.234-2.09 1.941-3.133 1.192-2.019 2.574-4.012 3.809-6.027.558-.86 1.082-1.699 1.68-2.539 1.789-2.727 3.585-5.414 5.562-8.063 0-.078.074-.148.148-.183.297-.45.633-.879.93-1.289 1.68-2.297 3.36-4.536 5.117-6.758.598-.821 1.266-1.641 1.868-2.442 1.601-1.945 3.171-3.882 4.734-5.804.601-.692 1.195-1.422 1.832-2.129 2.09-2.52 4.293-5.02 6.535-7.489 0-.031.07-.085.11-.144.074-.094.148-.188.296-.277a318 318 0 0 1 6.61-7.02 118 118 0 0 1 2.199-2.148c1.715-1.739 3.433-3.489 5.265-5.204.747-.714 1.489-1.402 2.204-2.089 2.386-2.243 4.773-4.485 7.273-6.625.04-.039.078-.063.113-.094.41-.356.86-.715 1.235-1.067 2.199-1.882 4.406-3.75 6.64-5.597.899-.75 1.793-1.457 2.692-2.184 1.867-1.476 3.73-2.89 5.594-4.312.972-.727 1.945-1.473 2.953-2.242 2.015-1.508 4.105-2.981 6.156-4.438.746-.543 1.492-1.086 2.277-1.586.188-.168.41-.316.598-.469 2.051-1.343 3.992-2.648 6.012-3.976.89-.574 1.754-1.137 2.613-1.711 3.133-2 6.266-3.922 9.367-5.789a69 69 0 0 0 2.649-1.473 213 213 0 0 1 7.054-3.941c1.305-.727 2.613-1.364 3.953-2.032 1.61-.878 3.289-1.773 5.008-2.652.41-.164.82-.316 1.192-.519.707-.321 1.378-.676 2.05-1.008 2.618-1.289 5.301-2.504 8.067-3.735.519-.246 1.078-.464 1.64-.746a296 296 0 0 1 9.368-3.882c.75-.278 1.492-.618 2.277-.875a363 363 0 0 1 8.808-3.286 17 17 0 0 1 1.083-.39 353 353 0 0 1 9.855-3.215c.781-.223 1.566-.5 2.387-.707 3.398-1.024 6.679-2.223 10.152-2.875 220.328-40.16 284.34 132.41 284.34 132.41-53.781-70-149.223-88.496-239.621-67.93-3.363.762-6.684 1.828-10.078 2.84-.789.223-1.684.481-2.469.762a282 282 0 0 0-9.699 3.137c-.45.148-.934.312-1.383.504-2.871.988-5.707 2.07-8.547 3.167-.785.34-1.605.622-2.391.918-3.136 1.231-6.23 2.555-9.254 3.883-.671.239-1.234.524-1.871.782a531 531 0 0 0-7.761 3.64c-.782.336-1.493.711-2.278 1.102-2.015.953-4.027 2.015-6.004 3.062-1.382.707-2.73 1.36-4.035 2.086-2.426 1.305-4.851 2.688-7.277 4.031-.75.508-1.57.938-2.43 1.403a347 347 0 0 0-9.402 5.765 57 57 0 0 0-2.539 1.7c-2.278 1.433-4.52 2.949-6.719 4.441-.711.504-1.418 1.027-2.164 1.551a386 386 0 0 0-6.344 4.554q-1.347 1.06-2.801 2.125c-1.906 1.473-3.808 2.93-5.71 4.461-.825.688-1.676 1.364-2.504 2.032-2.461 1.976-4.774 3.961-7.129 6.011-.223.243-.555.45-.821.653-2.5 2.238-5 4.531-7.464 6.812-.747.707-1.375 1.363-2.125 2.035-1.789 1.754-3.582 3.469-5.336 5.246-.746.743-1.422 1.434-2.129 2.141a212 212 0 0 0-6.606 6.981 3 3 0 0 0-.34.335c-2.273 2.5-4.476 5.04-6.675 7.618-.602.687-1.161 1.398-1.754 2.07-1.61 1.977-3.215 3.977-4.856 5.953-.519.766-1.121 1.492-1.718 2.242a274 274 0 0 0-5.56 7.407c-50.167 68.437-68.269 162.886-28.14 240.39" fill="#2e64b3" transform="matrix(.13333 0 0 -.13333 0 94.333)"/><path d="M174.164 628.238c-33.035-47.402-31.203-110.875-5.488-161.035 4.254-8.398 9.105-16.558 14.554-24.301 4.93-7.089 10.379-15.488 16.985-21.183 2.312-2.614 4.812-5.153 7.39-7.703.637-.637 1.274-1.258 1.942-1.926a247 247 0 0 1 7.539-6.977c.078-.097.223-.191.301-.285a1 1 0 0 0 .074-.051 180 180 0 0 1 8.809-7.3c.707-.504 1.343-1.067 2.05-1.567 2.989-2.336 6.051-4.57 9.145-6.773.113-.039.187-.114.34-.172 1.34-.969 2.758-1.863 4.215-2.797.632-.41 1.304-.895 1.941-1.289a188 188 0 0 1 6.828-4.219c.34-.168.672-.351 1.008-.519a94 94 0 0 1 6.051-3.379c.707-.43 1.414-.766 2.125-1.157a196 196 0 0 0 4.215-2.183c.187-.098.453-.203.675-.301 2.91-1.437 5.86-2.758 8.77-4.086.707-.281 1.308-.523 1.976-.801 2.395-1.027 4.817-2.039 7.207-2.949 1.079-.359 2.09-.781 3.098-1.14a307 307 0 0 1 6.645-2.274c1.078-.355 2.05-.656 3.023-.973 3.133-.992 6.309-2.261 9.629-2.777 170.055-28.203 209.394 102.793 209.394 102.793-35.421-51.027-103.992-75.324-177.144-56.328-3.285.84-6.492 1.777-9.633 2.801-1.008.261-1.898.578-2.871.914a149 149 0 0 0-6.758 2.316c-1.008.371-2.051.746-3.058 1.137-2.426.949-4.852 1.883-7.207 2.93-.707.281-1.379.519-1.938.82-3.023 1.309-6.012 2.711-8.922 4.105-1.492.766-2.949 1.512-4.441 2.297-.895.449-1.754.879-2.539 1.289-1.981 1.024-3.809 2.11-5.676 3.207-.441.243-.895.469-1.344.731-2.273 1.379-4.629 2.762-6.789 4.199-.75.426-1.383.914-2.09 1.359a240 240 0 0 0-4.484 2.93c-3.094 2.149-6.117 4.422-9.141 6.703-.711.578-1.382 1.098-2.054 1.66-32.102 25.27-57.481 59.829-69.496 98.965-12.692 40.649-9.895 86.281 11.98 123.285" fill="#2e64b3" transform="matrix(.13333 0 0 -.13333 0 94.333)"/><path d="M293.082 669.465c-19.484-28.59-21.352-64.11-7.918-95.645 14.262-33.523 43.41-59.816 77.379-72.261 1.379-.543 2.762-.993 4.18-1.477.636-.184 1.23-.391 1.906-.594 1.976-.617 3.953-1.363 6.004-1.758 93.945-18.14 119.406 48.208 126.234 57.969-22.355-32.14-59.867-39.844-105.89-28.668-3.622.879-7.579 2.184-11.086 3.453a145 145 0 0 0-13.25 5.469c-8.098 3.934-15.938 8.676-23.18 14.164-41.207 31.242-66.734 90.832-39.863 139.371" fill="#2e64b3" transform="matrix(.13333 0 0 -.13333 0 94.333)"/><path d="m2469.95 535.531 3.69-15.566c1.04-4.457-1.79-8.059-6.35-8.059M2173.58 562.258c-.93-4.313-2.05-9.762-2.79-13.367l-32.51-152.153 34.19 160.293zM1199.63 460.434l-17.96-63.582 17.96 63.562z" fill="#ffffff" transform="matrix(.13333 0 0 -.13333 0 94.333)"/><path d="m2473.64 519.965-9.37 39.621c-7.39 28.668-28.33 42.215-75.39 42.215h-197.94c-4.56 0-9.11-2.055-10.04-6.512l-75.09-356.144c-.98-4.5-1.27-7.704-.76-9.93.53-2.297 9.34-1.867 13.85-1.867h68.57c4.59 0 12.92-.34 15.34.636 2.54 1.043 3.66 7.832 4.59 12.325l24.23 124.871 29.6 138.511c.96 4.446 5.44 8.082 10 8.082l196.06.133c4.52 0 7.39 3.617 6.35 8.059" fill="#ffffff" transform="matrix(.13333 0 0 -.13333 0 94.333)"/><path d="M2752.55 664.34c-4.59-.051-86.95 0-86.95 0-4.55 0-10.41-4.891-12.95-8.66l-152.63-224.547c-2.6-3.77-5.55-3.637-6.56.801l-11.28 49.214c-.96 4.461-5.51 8.098-10.14 8.098h-98.1c-4.51 0-7.24-3.766-6.04-8.172l43.97-154.164c1.27-4.414 1.38-11.621.25-16.035l-20.5-78.086c-1.09-4.426 1.71-5.762 6.34-5.762h96.86c4.55 0 9.26 1.317 10.37 5.762l20.52 79.18c1.12 4.414 4.29 10.418 7.01 14.101l249.09 330.34c2.8 3.621 2.4 7.957-2.15 7.957zM1731.21 601.5h-88.54c-4.51 0-9.14-1.586-10.04-6.066l-29.26-136.918-29.15-131.098c-.93-4.445-5.45-4.141-10.01-4.141h-58.18c-57.56 0-50.92 36.368-39.08 90.879.14.543 36.91 181.278 36.91 181.278.82 4.461-2.17 6.066-6.68 6.066h-84.35c-4.55 0-9.08-1.605-9.96-6.066l-33.94-181.145c-16.92-97.945-17.43-184.129 96.15-186.969 1.87-.07 179.35 0 179.35 0 4.59 0 9.1 1.504 10.08 5.918l38.51 181.664 38.37 182.418s1.36 4.18-.18 4.18M849.371 601.801h-94.918c-4.555 0-9.144-1.082-10.152-5.559l-17.133-74.113c-.973-4.383 1.941-7.891 6.531-7.891h90.887c4.594 0 9.144 4.141 10.117 8.567l16.496 74.668s1.317 4.328-1.828 4.328M727.543 489.246c-4.516 0-9.145-3.601-10.117-8.058l-12.801-56.528-28.555-130.543s-15.191-69.394-16.644-73.742c0 0-12.793-50.105-43.356-48.094-14.218.938-30.472 4.199-30.472 4.199h-.039c-8.547 2.579-9.149-6.289-10.192-10.722L556.52 84.43c-1.086-4.453 1.832-8.457 6.347-8.516 0 0 40.867-5.762 69.723-5.762h4.738c71.289 0 108.949 41.914 133.024 155.731l28.218 131.738 26.465 122.574c.973 4.465-1.719 8.606-6.269 8.606M1997.32 445.66c0-4.945-15.63-4.004-15.63-4.004l-124.47.903c-4.3 0-5.53 6.031-5.83 10.343-.01.145.31 5.168.68 6.414 9.62 33.375 38.33 52.442 83.83 52.442 51.2 0 62.14-25.399 62.14-53.559m-42.81 144.149c-159.67 0-197.78-98.684-218.98-196.496-21.21-99.735-19.4-178.563 145.81-178.563h151.14000000000001c4.47.078 8.95 4.18 9.85 8.606l16.24 63.261c.94 4.481-2.09 5.801-6.6 5.801H1904.1c-53.82 0-73.09 16.582-71.21 53.809-.04 4.238 4.81 15.019 9.36 15.019h228.88c10.05.059 10.37 5.938 10.37 5.938 23.3 105.16 24.82 222.625-126.27 222.625M1180.82 396.852l-18.4-62.891c-1.27-4.414-6.46-7.356-11.02-7.356h-94.92c-72.031 0-89.539 55.672-72.031 138.739 17.581 84.91 52.411 137.445 123.251 142.765 96.86 7.297 116.68-61.101 93.2-139.726zm84.35-66.641s44.72 108.629 54.86 171.41c13.89 84.02-28.14 205.863-190.65 205.863-161.536 0-231.638-116.32-258.474-242.796-26.722-127.387 8.266-238.297 168.914-237.399l245.2.149c4.52.019 9.23 3.671 10.39 8.027l20.67 78.711c1.12 4.441-1.68 8.047-6.27 8.066l-19.75.145-19.74.09c-3.88.039-6.12 2.558-5.6 5.898.07.605.15 1.211.45 1.836" fill="#ffffff" transform="matrix(.13333 0 0 -.13333 0 94.333)"/></svg>
