<svg xmlns="http://www.w3.org/2000/svg" width="600" height="180.322"><g fill="none" fill-rule="nonzero"><path fill="#ffffff" d="M238.283 135.76V40.787h40.972q17.988 0 26.95 8.073 8.96 8.004 8.96 21.64 0 10.311-5.13 17.502-5.131 7.191-15.458 10.244a397 397 0 0 1 12.175 18.18 385 385 0 0 1 11.422 19.334h-16.757a327 327 0 0 0-10.534-18.791q-5.474-9.157-10.74-16.756h-27.496v35.547zm39.604-81.744h-25.24v33.24h25.24q11.627 0 17.1-4.07 5.472-4.138 5.472-12.55t-5.472-12.482q-5.473-4.138-17.1-4.138m82.843 83.372q-9.85 0-17.306-4.477-7.388-4.478-11.559-12.482-4.104-8.005-4.104-18.52t4.104-18.52q4.17-8.073 11.56-12.55 7.456-4.545 17.305-4.545h1.505q8.96 0 15.732 4.41 6.839 4.341 10.67 12.618 3.83 8.208 3.83 19.808v4.138H341.92q1.233 8.345 6.293 13.16 5.13 4.75 13.339 4.75h1.368q4.925 0 9.44-1.968 4.514-2.035 7.59-5.427l8.415 8.819q-4.653 4.951-11.491 7.87-6.773 2.916-14.638 2.916zm-.41-58.883q-7.32 0-12.245 4.817-4.856 4.748-6.156 13.024h36.8q-.616-7.53-4.993-12.685-4.31-5.156-12.038-5.156zm66.758 58.612q-10.81 0-16.826-5.495-5.951-5.563-5.952-14.585 0-8.955 6.703-14.992 6.773-6.038 21.547-6.038h18.605v-.203q0-17.095-15.869-17.095-6.636-.001-11.217 2.374a19.44 19.44 0 0 0-7.32 6.648l-9.37-7.53q4.376-6.716 11.491-10.311 7.181-3.596 16.28-3.596h1.504q12.585 0 20.247 7.191 7.66 7.19 7.66 21.505v40.77H451.43v-11.057q-3.969 5.97-10.193 9.225-6.225 3.189-14.158 3.189m3.01-12.075q7.934 0 13.2-3.528 5.266-3.595 7.867-9.7v-5.156h-18.058q-8.071 0-11.56 2.578-3.42 2.51-3.42 6.851 0 8.955 11.97 8.955m83.286 12.346q-9.85 0-17.44-4.274-7.594-4.274-11.902-12.21-4.242-8.005-4.241-18.995-.001-11.058 4.24-18.994 4.24-8.005 11.765-12.28 7.593-4.34 17.578-4.34h1.505q7.935 0 14.98 4.07 7.113 4.002 11.492 11.057l-10.603 7.327q-2.94-4.614-7.044-7.191-4.105-2.646-9.303-2.646h-1.368q-8.892 0-14.023 6.241-5.061 6.174-5.061 16.688 0 10.447 5.061 16.688 5.13 6.241 14.023 6.241h1.368q5.198 0 9.576-2.306a24.1 24.1 0 0 0 7.524-6.173l9.85 8.276q-4.584 5.97-11.56 9.43-6.91 3.39-14.912 3.391zm73.767-.746q-12.176 0-18.536-6.105t-6.362-18.791v-32.02h-13.406V67.922h13.406V47.707h13.68v20.215h23.052v11.804h-23.052v30.188q0 8.005 3.353 11.125 3.35 3.12 9.917 3.12 3.146 0 5.609-.27 2.53-.272 5.198-.679v11.872q-2.737.678-6.156 1.085-3.42.475-6.703.475"/><path fill="#087EA4" d="M99.821 110.555c10.67 0 19.32-8.89 19.32-19.857s-8.65-19.857-19.32-19.857-19.32 8.89-19.32 19.857 8.65 19.857 19.32 19.857"/><path fill="#087EA4" d="M200.716 90.163c0-15.05-13.98-28.264-36.226-36.934 3.596-23.589-.884-42.289-13.954-49.814-11.672-6.726-27.837-3.434-45.52 9.278a113 113 0 0 0-4.67 3.554 112 112 0 0 0-4.648-3.554C78.016-.019 61.851-3.323 50.178 3.415 37.12 10.94 32.64 29.628 36.249 53.193 13.978 61.875 0 75.101 0 90.163c0 15.05 13.978 28.264 36.224 36.934-3.596 23.59.884 42.29 13.955 49.814 3.954 2.278 8.434 3.411 13.309 3.411 9.498 0 20.525-4.293 32.21-12.689a113 113 0 0 0 4.671-3.554 113 113 0 0 0 4.648 3.554c11.684 8.407 22.712 12.689 32.21 12.689 4.874 0 9.354-1.133 13.31-3.41 11.672-6.727 16.892-22.35 14.707-43.995-.191-1.908-.443-3.84-.754-5.808 22.26-8.67 36.226-21.884 36.226-36.946m-90.108-69.73c9.94-7.143 19.188-10.864 26.619-10.864 3.214 0 6.081.692 8.53 2.099 8.555 4.937 12.21 19.093 9.594 38.389-8.602-2.636-18.124-4.651-28.363-5.94-6.129-8.049-12.628-15.312-19.283-21.513.968-.74 1.935-1.479 2.903-2.17m-55.65-8.765c2.449-1.407 5.316-2.099 8.53-2.099 7.431 0 16.679 3.709 26.619 10.864.967.692 1.935 1.42 2.903 2.17-6.655 6.202-13.142 13.453-19.271 21.503-10.227 1.288-19.761 3.315-28.363 5.939-2.617-19.284 1.027-33.44 9.582-38.377m-45.4 78.495c0-9.862 10.466-20.107 28.518-27.489 2.02 8.742 5.03 17.984 9.008 27.465-4.002 9.493-7.013 18.748-9.032 27.501-18.028-7.382-28.494-17.614-28.494-27.477m80.549 69.73c-14.242 10.233-27.05 13.428-35.15 8.766-8.554-4.937-12.21-19.093-9.593-38.39 8.602 2.636 18.124 4.652 28.363 5.94 6.129 8.05 12.628 15.312 19.283 21.514a92 92 0 0 1-2.903 2.17m10.25-8.384C88.41 140.585 76.93 125.99 67.24 109.244c-2.592-4.472-7.834-15.713-9.96-20.066-1.697 4.055-3.373 7.775-4.687 11.734 1.075 1.992 5.221 11.1 6.368 13.09 2.27 3.924 4.648 7.74 7.097 11.438-6.87-1.205-13.226-2.755-19.009-4.58 3.286-14.812 9.845-31.89 20.191-49.778 2.545-4.4 8.074-14.226 10.846-18.305-4.373.56-7.884.375-11.994 1.222-1.195 1.932-5.984 10.333-7.131 12.325a221 221 0 0 0-6.368 11.854c-2.39-6.547-4.217-12.82-5.52-18.735C61.565 54.875 79.665 52 100.357 52c5.174 0 15.977-.105 20.804.241-2.664-3.494-4.949-6.657-7.733-9.782-2.258-.071-10.765 0-13.07 0-4.564 0-9.033.155-13.417.418 4.348-5.164 8.853-9.887 13.416-14.06 11.936 10.923 23.43 25.52 33.118 42.264 2.545 4.4 8.044 14.645 10.206 19.081 1.708-4.055 3.325-7.753 4.65-11.736-1.074-2.003-5.43-10.136-6.576-12.115a217 217 0 0 0-7.097-11.425c6.87 1.204 13.226 2.755 19.008 4.58-3.285 14.811-9.844 31.889-20.19 49.777-2.545 4.401-9.788 14.478-12.56 18.557 4.373-.56 9.109-1.398 13.219-2.245 1.194-1.932 6.473-9.562 7.62-11.553a207 207 0 0 0 6.332-11.795c2.318 6.369 4.158 12.63 5.496 18.688-14.48 4.568-32.557 7.43-53.226 7.43-5.173 0-17.2-.68-22.027-1.025 2.664 3.494 5.534 7.132 8.317 10.256 2.258.072 11.405.31 13.71.31 4.564 0 9.033-.156 13.417-.418-4.36 5.164-8.853 9.886-13.417 14.06m45.4 17.15c-8.1 4.675-20.92 1.478-35.149-8.766a92 92 0 0 1-2.903-2.17c6.655-6.202 13.142-13.453 19.271-21.503 10.215-1.287 19.725-3.303 28.315-5.927.167 1.205.335 2.41.454 3.59 1.756 17.436-1.887 30.1-9.988 34.776m16.906-51.007c-2.055-8.873-5.102-18.115-9.033-27.453 4.003-9.493 7.014-18.747 9.033-27.5 18.028 7.381 28.495 17.602 28.495 27.464 0 9.863-10.454 20.095-28.495 27.49"/></g></svg>
