<svg xmlns="http://www.w3.org/2000/svg" viewBox="0 0 600 180.77"><g fill="none" fill-rule="nonzero"><path fill="#F6F7F9" d="M238.675 136.444V40.788h40.928q17.968 0 26.92 8.131 8.95 8.062 8.95 21.796 0 10.386-5.124 17.628-5.125 7.242-15.441 10.317 6.217 8.814 12.162 18.312a389 389 0 0 1 11.41 19.472h-16.74a331 331 0 0 0-10.522-18.926q-5.467-9.225-10.728-16.876h-27.467v35.802zm39.561-82.332h-25.213v33.48h25.213q11.614 0 17.082-4.1 5.465-4.168 5.466-12.64 0-8.474-5.466-12.572-5.468-4.168-17.082-4.168m82.753 83.972q-9.838 0-17.287-4.51-7.38-4.509-11.546-12.571-4.1-8.063-4.1-18.653t4.1-18.653q4.166-8.13 11.546-12.64 7.449-4.578 17.287-4.578h1.504q8.95 0 15.715 4.441 6.831 4.372 10.658 12.709 3.826 8.267 3.827 19.95v4.169h-50.494q1.23 8.403 6.286 13.255 5.125 4.782 13.324 4.783h1.367q4.92 0 9.429-1.982 4.508-2.049 7.583-5.466l8.405 8.882q-4.648 4.989-11.479 7.926-6.765 2.938-14.621 2.938zm-.41-59.307q-7.311 0-12.23 4.852-4.851 4.782-6.15 13.118h36.76q-.615-7.584-4.988-12.777-4.305-5.193-12.025-5.193zm66.687 59.034q-10.797 0-16.809-5.534-5.944-5.603-5.945-14.69 0-9.02 6.696-15.1 6.765-6.082 21.524-6.081h18.584V96.2q-.001-17.22-15.851-17.219-6.63 0-11.206 2.392-4.51 2.391-7.311 6.696l-9.36-7.584q4.371-6.765 11.478-10.386 7.174-3.621 16.262-3.621h1.503q12.57 0 20.225 7.242 7.651 7.243 7.652 21.66v41.063H451.59v-11.137q-3.964 6.013-10.182 9.293-6.218 3.21-14.142 3.211m3.006-12.162q7.926 0 13.186-3.553 5.26-3.621 7.858-9.77v-5.193h-18.038q-8.063 0-11.548 2.596-3.416 2.528-3.416 6.901 0 9.02 11.958 9.019m83.196 12.435q-9.839 0-17.422-4.304-7.585-4.305-11.889-12.299-4.237-8.062-4.236-19.131-.001-11.137 4.236-19.131 4.235-8.063 11.752-12.367 7.584-4.374 17.56-4.373h1.502q7.927 0 14.965 4.1 7.104 4.031 11.478 11.136l-10.591 7.38q-2.937-4.647-7.037-7.243-4.1-2.665-9.292-2.665h-1.367q-8.883 0-14.007 6.286-5.055 6.218-5.056 16.809 0 10.521 5.056 16.808 5.124 6.285 14.007 6.286h1.367q5.191 0 9.565-2.323a24.1 24.1 0 0 0 7.516-6.218l9.84 8.336q-4.579 6.012-11.549 9.497-6.9 3.416-14.895 3.416zm73.687-.751q-12.163 0-18.516-6.15-6.354-6.15-6.355-18.926v-32.25h-13.392V68.12h13.392V47.757h13.665V68.12h23.027v11.888h-23.027v30.405q0 8.062 3.35 11.206 3.346 3.143 9.906 3.143 3.142 0 5.602-.274 2.529-.273 5.193-.683v11.957q-2.734.684-6.15 1.093-3.415.48-6.695.479"/><g fill="#58C4DC"><path d="M100.332 71.242c-3.78 0-7.476 1.123-10.62 3.226a19.13 19.13 0 0 0-7.039 8.59 19.16 19.16 0 0 0 4.143 20.858 19.09 19.09 0 0 0 20.83 4.149 19.1 19.1 0 0 0 8.578-7.05 19.16 19.16 0 0 0-2.377-24.167 19.1 19.1 0 0 0-13.515-5.606"/><path d="M200.664 90.382c0-15.107-13.975-28.356-36.224-37.075.298-1.963.566-3.906.757-5.813 2.195-21.705-3.03-37.371-14.703-44.12-13.06-7.55-31.509-2.07-50.162 12.873C81.679 1.304 63.23-4.175 50.169 3.374c-11.673 6.749-16.897 22.415-14.703 44.12.191 1.907.453 3.857.758 5.828-1.855.708-3.674 1.46-5.423 2.247C10.937 64.508 0 76.884 0 90.382c0 15.106 13.974 28.355 36.224 37.074a109 109 0 0 0-.758 5.813c-2.194 21.705 3.03 37.371 14.703 44.12a25.9 25.9 0 0 0 13.175 3.375c11.057 0 23.97-5.828 36.988-16.248 13.011 10.42 25.93 16.248 37.002 16.248a25.93 25.93 0 0 0 13.175-3.375c11.673-6.749 16.898-22.415 14.703-44.12-.191-1.907-.461-3.85-.758-5.813 22.25-8.705 36.225-21.975 36.225-37.074zM137.25 9.57a16.7 16.7 0 0 1 8.494 2.084c8.106 4.685 11.745 17.396 9.975 34.87a94 94 0 0 1-.432 3.607 168.7 168.7 0 0 0-28.316-5.947 169.5 169.5 0 0 0-19.326-21.6c11.064-8.563 21.45-13.014 29.597-13.014zm-3.81 99.951a209 209 0 0 1-11.68 18.077 208 208 0 0 1-21.435 1.091c-7.157.005-14.31-.36-21.429-1.091a208 208 0 0 1-11.645-18.077 206 206 0 0 1-9.747-19.14 206 206 0 0 1 9.747-19.14 211 211 0 0 1 11.61-18.012c7.132-.75 14.3-1.124 21.471-1.12a208 208 0 0 1 21.429 1.092 212 212 0 0 1 11.652 18.04 208 208 0 0 1 9.747 19.14 208 208 0 0 1-9.747 19.14zm14.59-7.089a150 150 0 0 1 5.523 18.786 148 148 0 0 1-18.944 4.572 213 213 0 0 0 7.08-11.477 244 244 0 0 0 6.37-11.852zm-47.69 49.572a149 149 0 0 1-13.451-14.177c4.403.269 8.898.425 13.45.425s9.075-.156 13.486-.425a150 150 0 0 1-13.486 14.177m-34.278-26.228a148 148 0 0 1-18.95-4.558 150 150 0 0 1 5.5-18.757 199 199 0 0 0 6.371 11.852c2.294 3.927 4.665 7.798 7.08 11.477zm-13.45-47.48a150 150 0 0 1-5.486-18.687 150 150 0 0 1 18.9-4.586 222 222 0 0 0-7.078 11.427 233 233 0 0 0-6.371 11.845zm47.685-49.544a149 149 0 0 1 13.485 14.177 221 221 0 0 0-13.485-.425q-6.825 0-13.45.425a149 149 0 0 1 13.45-14.177m41.377 37.698a209 209 0 0 0-7.114-11.484 148 148 0 0 1 18.993 4.58 152 152 0 0 1-5.5 18.756 201 201 0 0 0-6.372-11.845zm-96.7-19.92c-1.792-17.466 1.868-30.183 9.967-34.87a16.77 16.77 0 0 1 8.495-2.083c8.148 0 18.533 4.451 29.598 13.015a170 170 0 0 0-19.34 21.613 171.3 171.3 0 0 0-28.317 5.926 94 94 0 0 1-.425-3.6zM9.556 90.382c0-9.372 9.203-18.878 25.166-26.087q1.635-.709 3.334-1.418a171 171 0 0 0 9.026 27.505 171 171 0 0 0-9.033 27.56c-18.037-7.407-28.493-17.672-28.493-27.56m45.384 78.72c-8.099-4.685-11.759-17.403-9.968-34.87.114-1.19.262-2.388.425-3.608a169 169 0 0 0 28.317 5.948 170 170 0 0 0 19.326 21.613c-15.426 11.932-29.52 15.865-38.079 10.917zm100.77-34.87c1.77 17.474-1.868 30.185-9.974 34.87-8.551 4.963-22.653 1.015-38.071-10.917a170 170 0 0 0 19.319-21.613 168.7 168.7 0 0 0 28.316-5.948c.17 1.22.312 2.418.432 3.609zm6.945-16.303a171.5 171.5 0 0 0-9.04-27.547 171.5 171.5 0 0 0 9.033-27.562c18.003 7.408 28.487 17.673 28.487 27.562 0 9.888-10.456 20.153-28.494 27.56"/></g><path fill="#58C4DC" d="M100.334 110.494c10.522 0 19.05-8.813 19.05-19.685s-8.528-19.686-19.05-19.686-19.05 8.814-19.05 19.686 8.529 19.685 19.05 19.685"/><path fill="#58C4DC" d="M200.669 90.176c0-15.052-13.976-28.268-36.217-36.94 3.595-23.592-.883-42.294-13.95-49.82-11.67-6.727-27.832-3.435-45.51 9.28a113 113 0 0 0-4.67 3.554 112 112 0 0 0-4.646-3.555C77.998-.019 61.836-3.323 50.167 3.415 37.112 10.943 32.632 29.633 36.24 53.202 13.975 61.884 0 75.11 0 90.176c0 15.052 13.975 28.268 36.216 36.94-3.595 23.592.884 42.294 13.951 49.82 3.954 2.279 8.433 3.411 13.306 3.411 9.496 0 20.52-4.293 32.203-12.69a113 113 0 0 0 4.67-3.555c1.54 1.24 3.094 2.434 4.647 3.555 11.681 8.408 22.706 12.69 32.202 12.69 4.873 0 9.352-1.132 13.306-3.411 11.67-6.727 16.89-22.352 14.704-44a104 104 0 0 0-.753-5.809c22.254-8.671 36.217-21.887 36.217-36.951m-90.086-69.74c9.937-7.144 19.182-10.866 26.612-10.866 3.213 0 6.08.692 8.528 2.1 8.553 4.937 12.208 19.095 9.592 38.394-8.6-2.636-18.12-4.652-28.356-5.94-6.128-8.05-12.626-15.315-19.28-21.517.969-.74 1.936-1.479 2.904-2.17M54.945 11.67c2.449-1.408 5.315-2.1 8.528-2.1 7.43 0 16.675 3.71 26.613 10.866a92 92 0 0 1 2.902 2.171c-6.653 6.202-13.139 13.454-19.266 21.505-10.225 1.288-19.757 3.316-28.357 5.94-2.616-19.287 1.028-33.445 9.58-38.382M9.555 90.176c0-9.864 10.464-20.11 28.512-27.493 2.019 8.743 5.029 17.987 9.006 27.47-4.001 9.493-7.011 18.75-9.03 27.504C20.02 110.274 9.556 100.04 9.556 90.176m80.53 69.74c-14.237 10.234-27.042 13.43-35.14 8.767-8.552-4.938-12.207-19.096-9.592-38.395 8.6 2.636 18.12 4.652 28.357 5.94 6.127 8.05 12.625 15.315 19.278 21.517a92 92 0 0 1-2.902 2.17m10.25-8.385C88.39 140.605 76.91 126.006 67.223 109.26c-2.592-4.473-7.833-15.716-9.959-20.07-1.696 4.056-3.371 7.776-4.685 11.736 1.075 1.992 5.22 11.101 6.366 13.093a222 222 0 0 0 7.095 11.438c-6.868-1.204-13.222-2.755-19.003-4.58 3.284-14.814 9.842-31.894 20.186-49.785 2.544-4.401 8.072-14.228 10.843-18.307-4.372.56-7.883.375-11.992 1.221-1.194 1.933-5.982 10.335-7.129 12.327A221 221 0 0 0 52.58 78.19c-2.39-6.548-4.217-12.822-5.518-18.738 14.488-4.568 32.584-7.443 53.272-7.443 5.172 0 15.973-.105 20.8.241-2.665-3.494-4.949-6.658-7.732-9.783-2.258-.071-10.763 0-13.068 0-4.563 0-9.03.155-13.414.418 4.348-5.165 8.851-9.888 13.414-14.063 11.933 10.926 23.423 25.525 33.11 42.271 2.545 4.401 8.042 14.647 10.204 19.084 1.708-4.055 3.324-7.754 4.65-11.738-1.076-2.004-5.43-10.137-6.576-12.117a217 217 0 0 0-7.095-11.426c6.868 1.204 13.222 2.755 19.004 4.58-3.285 14.814-9.843 31.894-20.187 49.785-2.544 4.401-9.785 14.48-12.556 18.559 4.372-.56 9.107-1.399 13.215-2.245 1.195-1.933 6.472-9.563 7.619-11.555a207 207 0 0 0 6.33-11.796c2.318 6.369 4.157 12.63 5.495 18.69-14.477 4.568-32.549 7.43-53.213 7.43-5.172 0-17.197-.679-22.022-1.025 2.663 3.495 5.532 7.134 8.315 10.259 2.258.071 11.402.309 13.707.309 4.563 0 9.03-.155 13.414-.418-4.36 5.165-8.851 9.888-13.414 14.063m45.388 17.152c-8.098 4.675-20.915 1.478-35.14-8.768a92 92 0 0 1-2.903-2.17c6.653-6.202 13.139-13.454 19.267-21.505 10.212-1.288 19.72-3.304 28.308-5.928.167 1.204.335 2.41.454 3.59 1.756 17.438-1.887 30.105-9.986 34.78m16.902-51.014c-2.055-8.874-5.1-18.118-9.03-27.457 4.001-9.494 7.011-18.75 9.03-27.505 18.024 7.383 28.488 17.605 28.488 27.469s-10.451 20.098-28.488 27.493"/></g></svg>