<svg xmlns="http://www.w3.org/2000/svg" xml:space="preserve" viewBox="0 0 59.39 59.39"><path fill="#F05138" d="M59.387 16.45a83 83 0 0 0-.027-1.792c-.035-1.301-.112-2.614-.343-3.9-.234-1.307-.618-2.523-1.222-3.71a12.46 12.46 0 0 0-5.453-5.452C51.156.992 49.941.609 48.635.374c-1.288-.232-2.6-.308-3.902-.343a86 86 0 0 0-1.792-.027Q41.876-.001 40.813 0H18.578q-1.065-.001-2.128.004c-.597.004-1.195.01-1.792.027q-.488.013-.978.036c-.978.047-1.959.133-2.924.307-.98.176-1.908.436-2.811.81A12.5 12.5 0 0 0 3.89 3.89a12.5 12.5 0 0 0-2.294 3.158C.992 8.235.61 9.451.374 10.758c-.231 1.286-.308 2.599-.343 3.9a86 86 0 0 0-.027 1.792Q-.002 17.515 0 18.578v22.235q-.001 1.064.004 2.128c.004.597.01 1.194.027 1.791.035 1.302.112 2.615.343 3.901.235 1.307.618 2.523 1.222 3.71a12.457 12.457 0 0 0 5.453 5.453c1.186.603 2.401.986 3.707 1.22 1.287.232 2.6.31 3.902.344q.896.022 1.793.027 1.063.006 2.127.004h22.235q1.063.001 2.128-.004.895-.004 1.792-.027c1.302-.035 2.614-.112 3.902-.343 1.306-.235 2.521-.618 3.707-1.222a12.46 12.46 0 0 0 5.453-5.452c.604-1.187.987-2.403 1.222-3.71.231-1.286.308-2.6.343-3.9q.023-.896.027-1.792.005-1.065.004-2.129V18.579q.001-1.065-.004-2.128"/><path fill="#FFF" d="m47.06 36.66-.004-.004c.066-.224.134-.446.191-.675 2.465-9.821-3.55-21.432-13.731-27.546 4.461 6.048 6.434 13.374 4.681 19.78-.156.571-.344 1.12-.552 1.653-.225-.148-.51-.316-.89-.527 0 0-10.127-6.252-21.103-17.312-.288-.29 5.852 8.777 12.822 16.14-3.284-1.843-12.434-8.5-18.227-13.802.712 1.187 1.558 2.33 2.489 3.43C17.573 23.932 23.882 31.5 31.44 37.314c-5.31 3.25-12.814 3.502-20.285.003a30.7 30.7 0 0 1-5.193-3.098c3.162 5.058 8.033 9.423 13.96 11.97 7.07 3.039 14.1 2.833 19.336.05l-.004.007c.024-.016.055-.032.08-.047q.322-.173.636-.358c2.516-1.306 7.485-2.63 10.152 2.559.654 1.27 2.041-5.46-3.061-11.74"/></svg>